<svg fill="none" height="88" viewBox="0 0 455 88" width="455" xmlns="http://www.w3.org/2000/svg" xmlns:xlink="http://www.w3.org/1999/xlink"><clipPath id="a"><path d="m0 0h455v88h-455z"/></clipPath><clipPath id="b"><path d="m125.635.31958h329.159v87.6222h-329.159z"/></clipPath><g clip-path="url(#a)"><path d="m3.50325 21.414c-1.34474.5791-2.21663 1.9076-2.21663 3.3777v38.8883c0 1.3192 1.34233 2.2085 2.54901 1.6889l4.14143-1.7834 3.83434-27.8728c.3833-2.2957 1.9165-3.8263 3.833-4.6872l36.8447-15.9348v-11.9847c0-1.31911-1.3424-2.208478-2.549-1.68885z" fill="#04cfec"/><path d="m18.1327 32.4385c-1.3447.5791-2.2166 1.9076-2.2166 3.3777v24.3506l-7.93881 3.4186 3.83431-27.8727c.3833-2.2958 1.9165-3.8263 3.833-4.6872l36.8447-15.9348v2.553z" fill="#03a5bc"/><path d="m32.7618 43.4631c-1.3447.5791-2.2166 1.9077-2.2166 3.3778v24.3506l-7.7925 3.3557 3.8158-27.7381c.3833-2.2958 1.9165-3.8263 3.833-4.6872l36.7169-15.8796v2.4261z" fill="#501ab0"/><path d="m18.1326 32.4385c-1.3447.5791-2.2166 1.9077-2.2166 3.3777v38.8884c0 1.3191 1.3423 2.2085 2.549 1.6889l4.2878-1.8465 3.8158-27.738c.3833-2.2958 1.9165-3.8263 3.833-4.6872l36.7169-15.8796v-12.1117c0-1.3191-1.3424-2.2084-2.549-1.6888z" fill="#6521dd"/><path d="m30.5452 46.8408c0-1.4701.8719-2.7987 2.2166-3.3777l46.4368-19.9969c1.2067-.5196 2.549.3698 2.549 1.6889v38.8884c0 1.47-.8719 2.7986-2.2166 3.3777l-46.4368 19.9968c-1.2067.5196-2.549-.3697-2.549-1.6888z" fill="#fff"/><path d="m30.5452 46.8408c0-1.4701.8719-2.7987 2.2166-3.3777l46.4368-19.9969c1.2067-.5196 2.549.3698 2.549 1.6889v38.8884c0 1.47-.8719 2.7986-2.2166 3.3777l-46.4368 19.9968c-1.2067.5196-2.549-.3697-2.549-1.6888z" fill="#ff0050"/><g clip-path="url(#b)" fill="#1c1f2f"><path d="m136.542 58.0917c2.227 2.9901 6.605 5.2135 11.904 5.2135 11.521 0 18.51-9.3536 18.51-21.0074 0-11.6537-6.989-21.0074-18.51-21.0074-5.53 0-10.215 2.1468-12.749 5.8269v-4.9068h-10.062v56.1219h10.907zm-.308-15.7939c0-3.0667 1.076-6.6702 3.226-8.7403 2.151-2.0701 4.532-2.6834 6.682-2.6834 5.991 0 9.908 4.9068 9.908 11.4237 0 3.0668-1.075 6.6703-3.226 8.7403-2.15 2.0701-4.531 2.6835-6.682 2.6835-5.991 0-9.908-4.9069-9.908-11.4238z"/><path d="m190.952 21.8271c-5.3 0-9.063 1.8401-11.367 5.5969v-5.2135h-10.062v40.1747h10.906v-20.0107c0-7.2836 3.226-10.5037 9.678-10.5037.691 0 1.382.0767 2.15.23v-10.197z"/><path d="m200.643 16.9969c3.764 0 6.606-2.7601 6.606-6.5169 0-3.75676-2.842-6.59353-6.606-6.59353-3.763 0-6.605 2.83677-6.605 6.59353 0 3.7568 2.842 6.5169 6.605 6.5169zm5.454 45.3883v-40.1747h-10.907v40.1747z"/><path d="m209.754 22.2105v40.1747h10.906v-23.0008c0-5.2902 3.072-8.7403 8.218-8.7403 3.61 0 6.835 2.2234 6.835 7.8969v23.8442h10.907v-25.0709c0-9.737-5.377-16.0239-14.824-16.0239-5.76 0-10.138 2.3768-11.981 5.8269v-4.9068z"/><path d="m271.12 52.7249c-.691.23-1.536.3833-2.535.3833-2.688 0-4.07-1.3034-4.07-3.9101v-18.4007h6.682v-8.5869h-6.682v-9.9671h-10.906v9.9671h-5.453v8.5869h5.453v19.5507c0 8.2036 4.147 12.2671 12.365 12.2671 2.151 0 3.84-.1533 5.146-.46z"/><path d="m280.461 22.2105h-11.521l16.129 40.1747h10.138l16.129-40.1747h-11.29l-9.831 27.0642z"/><path d="m348.67 42.2212c0-11.8071-8.295-20.9308-19.969-20.9308-11.751 0-20.2 9.1237-20.2 20.9308 0 12.2671 8.602 21.084 20.277 21.084 4.531 0 8.602-1.3033 12.058-3.8334s5.837-5.8269 6.989-9.8904h-10.983c-1.229 2.7601-4.378 4.3702-7.757 4.3702-6.375 0-9.293-4.5235-9.754-8.5103h29.185zm-20.046-12.1905c4.915 0 8.295 3.0668 9.14 7.5903h-18.28c.922-4.6002 4.301-7.5903 9.14-7.5903z"/><path d="m373.817 21.8271c-5.299 0-9.062 1.8401-11.366 5.5969v-5.2135h-10.062v40.1747h10.906v-20.0107c0-7.2836 3.226-10.5037 9.678-10.5037.691 0 1.382.0767 2.15.23v-10.197z"/><path d="m393.596 63.3052c9.447 0 17.051-4.6768 17.051-12.8804 0-2.2234-.384-4.0635-1.076-5.5202-1.536-2.9901-4.224-5.3669-11.52-6.6702-3.687-.6901-5.837-1.0734-6.452-1.3034-.691-.1534-1.229-.3834-1.766-.7667-1.075-.6134-1.459-1.3801-1.459-2.2234 0-2.2234 2.15-3.9102 5.529-3.9102 3.687 0 5.838 2.1468 6.068 4.8302h10.522c-.307-4.9835-2.918-8.817-5.837-10.7337-2.919-1.8401-6.452-2.8368-10.676-2.8368-12.288 0-16.128 8.357-16.128 13.2638.46 7.5903 3.763 8.9703 8.371 10.8104 1.229.46 3.303.92 6.221 1.4567 2.842.5367 4.762.9967 5.684 1.3801 2.534 1.2267 2.073 2.6834 2.073 2.6834 0 2.2234-2.304 3.6801-6.298 3.6801-4.224 0-6.451-2.3767-6.681-5.2135h-11.06c.691 9.507 7.066 13.9538 17.434 13.9538z"/><path d="m452.965 42.2212c0-11.8071-8.294-20.9308-19.968-20.9308-11.751 0-20.2 9.1237-20.2 20.9308 0 12.2671 8.602 21.084 20.276 21.084 4.532 0 8.602-1.3033 12.059-3.8334 3.456-2.5301 5.837-5.8269 6.989-9.8904h-10.983c-1.229 2.7601-4.378 4.3702-7.757 4.3702-6.375 0-9.294-4.5235-9.755-8.5103h29.186zm-20.045-12.1905c4.915 0 8.295 3.0668 9.139 7.5903h-18.279c.922-4.6002 4.301-7.5903 9.14-7.5903z"/></g></g></svg>