<svg fill="none" height="32" viewBox="0 0 162 32" width="162" xmlns="http://www.w3.org/2000/svg"><g fill="#1c1f2f"><path d="m51.765 21.931c.7689 1.0443 2.2802 1.8208 4.1096 1.8208 3.9771 0 6.3899-3.2667 6.3899-7.3368 0-4.07-2.4128-7.33673-6.3899-7.33673-1.909 0-3.5263.74974-4.4013 2.03503v-1.71371h-3.4733v19.60041h3.765zm-.1061-5.516c0-1.071.3712-2.3295 1.1136-3.0525s1.5643-.9372 2.3067-.9372c2.0681 0 3.4203 1.7137 3.4203 3.9897 0 1.0711-.3712 2.3296-1.1136 3.0526-.7423.7229-1.5643.9371-2.3067.9371-2.0681 0-3.4203-1.7137-3.4203-3.9897z"/><path d="m70.5482 9.2657c-1.8294 0-3.1286.64264-3.924 1.9547v-1.82081h-3.4734v14.03091h3.765v-6.9887c0-2.5438 1.1136-3.6684 3.3408-3.6684.2386 0 .4772.0268.7424.0804v-3.56132z"/><path d="m73.894 7.57878c1.2992 0 2.2802-.96395 2.2802-2.276s-.981-2.30278-2.2802-2.30278c-1.2991 0-2.2802.99073-2.2802 2.30278s.9811 2.276 2.2802 2.276zm1.8825 15.85172v-14.03091h-3.765v14.03091z"/><path d="m77.0391 9.39959v14.03091h3.765v-8.033c0-1.8476 1.0605-3.0525 2.837-3.0525 1.2461 0 2.3597.7765 2.3597 2.758v8.3275h3.765v-8.7559c0-3.4007-1.856-5.59633-5.1172-5.59633-1.9885 0-3.4998.83007-4.1362 2.03503v-1.71371z"/><path d="m98.2238 20.0566c-.2387.0804-.5303.1339-.875.1339-.928 0-1.4052-.4552-1.4052-1.3656v-6.4263h2.3067v-2.99901h-2.3067v-3.48095h-3.765v3.48095h-1.8825v2.99901h1.8825v6.828c0 2.8651 1.4317 4.2842 4.2687 4.2842.7424 0 1.3257-.0535 1.7765-.1606z"/><path d="m101.448 9.39959h-3.9767l5.5677 14.03091h3.5l5.568-14.03091h-3.898l-3.393 9.45211z"/><path d="m124.995 16.3883c0-4.1236-2.863-7.31003-6.893-7.31003-4.057 0-6.974 3.18643-6.974 7.31003 0 4.2842 2.97 7.3635 7 7.3635 1.564 0 2.97-.4552 4.163-1.3388s2.015-2.035 2.413-3.4542h-3.792c-.424.964-1.511 1.5263-2.678 1.5263-2.2 0-3.208-1.5798-3.367-2.9722h10.075zm-6.92-4.2575c1.697 0 2.864 1.0711 3.155 2.6509h-6.31c.318-1.6066 1.485-2.6509 3.155-2.6509z"/><path d="m133.677 9.2657c-1.83 0-3.129.64264-3.924 1.9547v-1.82081h-3.474v14.03091h3.765v-6.9887c0-2.5438 1.114-3.6684 3.341-3.6684.239 0 .477.0268.742.0804v-3.56132z"/><path d="m140.505 23.7518c3.261 0 5.886-1.6334 5.886-4.4985 0-.7765-.133-1.4191-.371-1.9279-.531-1.0442-1.459-1.8743-3.977-2.3295-1.273-.241-2.016-.3749-2.228-.4552-.238-.0536-.424-.1339-.609-.2678-.372-.2142-.504-.482-.504-.7765 0-.7765.742-1.3656 1.909-1.3656 1.272 0 2.015.7497 2.094 1.6869h3.633c-.106-1.7405-1.008-3.0793-2.015-3.7487-1.008-.64263-2.227-.99073-3.686-.99073-4.242 0-5.568 2.91863-5.568 4.63233.159 2.6509 1.3 3.1329 2.89 3.7755.425.1607 1.14.3213 2.148.5088.981.1874 1.644.348 1.962.4819.875.4285.716.9372.716.9372 0 .7765-.796 1.2853-2.174 1.2853-1.459 0-2.227-.8301-2.307-1.8208h-3.818c.239 3.3203 2.439 4.8733 6.019 4.8733z"/><path d="m161 16.3883c0-4.1236-2.864-7.31003-6.894-7.31003-4.056 0-6.973 3.18643-6.973 7.31003 0 4.2842 2.97 7.3635 7 7.3635 1.564 0 2.969-.4552 4.163-1.3388 1.193-.8836 2.015-2.035 2.412-3.4542h-3.791c-.424.964-1.511 1.5263-2.678 1.5263-2.201 0-3.208-1.5798-3.367-2.9722h10.075zm-6.92-4.2575c1.697 0 2.863 1.0711 3.155 2.6509h-6.31c.318-1.6066 1.484-2.6509 3.155-2.6509z"/></g><path d="m1.10557 7.44719c-.677566.33878-1.10557 1.03131-1.10557 1.78886v13.95495c0 .3717.391156.6134.723607.4472l3.009723-1.5049 1.06753-8.5402c.12441-.9953.73803-1.8626 1.63519-2.3111l9.56395-4.78202v-5.690985c0-.371691-.3912-.613439-.7236-.447214z" fill="#04cfec"/><path d="m8.00001 20-4.26667 2.1333 1.06752-8.5402c.12442-.9953.73803-1.8626 1.63519-2.3111l9.56395-4.782v1.5l-6.89442 3.4472c-.67757.3388-1.10557 1.0313-1.10557 1.7889z" fill="#03a5bc"/><path d="m9.10557 11.4472c-.67757.3388-1.10557 1.0313-1.10557 1.7888v13.955c0 .3717.39116.6134.72361.4472l3.00969-1.5049 1.0676-8.5402c.1244-.9953.738-1.8626 1.6351-2.3111l9.564-4.782v-5.69101c0-.37169-.3912-.61343-.7236-.44721z" fill="#6521dd"/><path d="m16 24-4.2667 2.1333 1.0676-8.5402c.1244-.9953.738-1.8626 1.6352-2.3111l9.5639-4.782v1.5l-6.8944 3.4472c-.6776.3388-1.1056 1.0313-1.1056 1.7889z" fill="#3c1384"/><path d="m16 17.236c0-.7575.428-1.45 1.1056-1.7888l14.1708-7.08542c.3324-.16622.7236.07552.7236.44721v13.95491c0 .7576-.428 1.4501-1.1056 1.7889l-14.1708 7.0854c-.3324.1662-.7236-.0755-.7236-.4472z" fill="#ff0050"/></svg>