<svg fill="none" height="32" viewBox="0 0 32 32" width="32" xmlns="http://www.w3.org/2000/svg"><g fill="#282e32"><path d="m1.10557 7.44719c-.677566.33878-1.10557 1.03131-1.10557 1.78886v13.95495c0 .3717.391156.6134.723607.4472l3.009723-1.5049 1.06753-8.5402c.12441-.9953.73803-1.8626 1.63519-2.3111l9.56395-4.78202v-5.690985c0-.371691-.3912-.613439-.7236-.447214z"/><path d="m9.10557 11.4472c-.67757.3388-1.10557 1.0313-1.10557 1.7888v13.955c0 .3717.39116.6134.72361.4472l3.00969-1.5049 1.0676-8.5402c.1244-.9953.738-1.8626 1.6351-2.3111l9.564-4.782v-5.69101c0-.37169-.3912-.61343-.7236-.44721z"/><path d="m16 17.236c0-.7575.428-1.45 1.1056-1.7888l14.1708-7.08542c.3324-.16622.7236.07552.7236.44721v13.95491c0 .7576-.428 1.4501-1.1056 1.7889l-14.1708 7.0854c-.3324.1662-.7236-.0755-.7236-.4472z"/></g></svg>